<?xml version="1.0" encoding="UTF-8"?>
<!DOCTYPE svg PUBLIC "-//W3C//DTD SVG 1.1//EN" "http://www.w3.org/Graphics/SVG/1.1/DTD/svg11.dtd">
<!-- Creator: CorelDRAW X7 -->
<svg xmlns="http://www.w3.org/2000/svg" xml:space="preserve" width="210mm" height="297mm" version="1.1" style="shape-rendering:geometricPrecision; text-rendering:geometricPrecision; image-rendering:optimizeQuality; fill-rule:evenodd; clip-rule:evenodd"
viewBox="0 0 21000 29700"
 xmlns:xlink="http://www.w3.org/1999/xlink"
 enable-background="new 0 0 48 48">
 <defs>
  <style type="text/css">
   <![CDATA[
    .str0 {stroke:#2B2A29;stroke-width:20}
    .fil0 {fill:black}
    .fil1 {fill:#73D118}
   ]]>
  </style>
 </defs>
 <g id="Capa_x0020_1">
  <metadata id="CorelCorpID_0Corel-Layer"/>
  <path class="fil0" d="M19819 1944l-18638 0c-525,0 -962,437 -962,962l0 18594c0,525 437,963 962,963l18594 0c525,0 963,-438 963,-963l0 -18594c43,-525 -394,-962 -919,-962zm-10369 2887c0,-568 481,-1006 1050,-1006 569,0 1050,481 1050,1006l0 8750c0,569 -481,1050 -1050,1050 -569,0 -1050,-481 -1050,-1050l0 -8750zm1050 15794c-4069,0 -7394,-3325 -7394,-7394 0,-2756 1488,-5250 3938,-6518 481,-263 1137,-88 1400,437 262,481 87,1138 -438,1400 -1750,919 -2843,2756 -2843,4725 0,2931 2406,5338 5337,5338 2931,0 5338,-2407 5338,-5338 0,-1969 -1094,-3762 -2844,-4725 -481,-262 -700,-875 -438,-1400 263,-481 875,-700 1400,-437 2407,1268 3938,3806 3938,6518 0,4069 -3325,7394 -7394,7394z"/>
  <path class="fil1 str0" d="M10500 20625c-4069,0 -7394,-3325 -7394,-7394 0,-2756 1488,-5250 3938,-6518 481,-263 1137,-88 1400,437 262,481 87,1138 -438,1400 -1750,919 -2843,2756 -2843,4725 0,2931 2406,5338 5337,5338 2931,0 5338,-2407 5338,-5338 0,-1969 -1094,-3762 -2844,-4725 -481,-262 -700,-875 -438,-1400 263,-481 875,-700 1400,-437 2407,1268 3938,3806 3938,6518 0,4069 -3325,7394 -7394,7394zm-1050 -7044l0 -8750c0,-568 481,-1006 1050,-1006 569,0 1050,481 1050,1006l0 8750c0,569 -481,1050 -1050,1050 -569,0 -1050,-481 -1050,-1050zm10369 -11637l-18638 0c-525,0 -962,437 -962,962l0 18594c0,525 437,963 962,963l18594 0c525,0 963,-438 963,-963l0 -18594c43,-525 -394,-962 -919,-962z"/>
  <path class="fil1 str0" d="M17894 13231c0,4069 -3325,7394 -7394,7394 -4069,0 -7394,-3325 -7394,-7394 0,-2756 1488,-5250 3938,-6518 481,-263 1137,-88 1400,437 262,481 87,1138 -438,1400 -1750,919 -2843,2756 -2843,4725 0,2931 2406,5338 5337,5338 2931,0 5338,-2407 5338,-5338 0,-1969 -1094,-3762 -2844,-4725 -481,-262 -700,-875 -438,-1400 263,-481 875,-700 1400,-437 2407,1268 3938,3806 3938,6518zm-6344 -8400l0 8750c0,569 -481,1050 -1050,1050 -569,0 -1050,-481 -1050,-1050l0 -8750c0,-568 481,-1006 1050,-1006 569,0 1050,481 1050,1006zm8269 -2887l-18638 0c-525,0 -962,437 -962,962l0 18594c0,525 437,963 962,963l18594 0c525,0 963,-438 963,-963l0 -18594c43,-525 -394,-962 -919,-962z"/>
  <path class="fil1 str0" d="M12994 8550c1750,963 2844,2756 2844,4725 0,2931 -2407,5338 -5338,5338 -2931,0 -5337,-2407 -5337,-5338 0,-1969 1093,-3806 2843,-4725 525,-262 700,-919 438,-1400 -263,-525 -919,-700 -1400,-437 -2450,1268 -3938,3762 -3938,6518 0,4069 3325,7394 7394,7394 4069,0 7394,-3325 7394,-7394 0,-2712 -1531,-5250 -3938,-6518 -525,-263 -1137,-44 -1400,437 -262,525 -43,1138 438,1400zm-1444 5031c0,569 -481,1050 -1050,1050 -569,0 -1050,-481 -1050,-1050l0 -8750c0,-568 481,-1006 1050,-1006 569,0 1050,481 1050,1006l0 8750zm8269 -11637l-18638 0c-525,0 -962,437 -962,962l0 18594c0,525 437,963 962,963l18594 0c525,0 963,-438 963,-963l0 -18594c43,-525 -394,-962 -919,-962z"/>
 </g>
</svg>
