<svg xmlns="http://www.w3.org/2000/svg" xmlns:xlink="http://www.w3.org/1999/xlink" version="1.1" x="0px" y="0px" viewBox="0 0 48 60" enable-background="new 0 0 48 48" xml:space="preserve"><path d="M45.3,0.5H2.7c-1.2,0-2.2,1-2.2,2.2v42.5c0,1.2,1,2.2,2.2,2.2h42.5c1.2,0,2.2-1,2.2-2.2V2.7C47.5,1.5,46.5,0.5,45.3,0.5z   M21.6,7.1c0-1.3,1.1-2.3,2.4-2.3s2.4,1.1,2.4,2.3v20c0,1.3-1.1,2.4-2.4,2.4s-2.4-1.1-2.4-2.4V7.1z M24,43.2  c-9.3,0-16.9-7.6-16.9-16.9c0-6.3,3.4-12,9-14.9c1.1-0.6,2.6-0.2,3.2,1c0.6,1.1,0.2,2.6-1,3.2c-4,2.1-6.5,6.3-6.5,10.8  c0,6.7,5.5,12.2,12.2,12.2s12.2-5.5,12.2-12.2c0-4.5-2.5-8.6-6.5-10.8c-1.1-0.6-1.6-2-1-3.2c0.6-1.1,2-1.6,3.2-1  c5.5,2.9,9,8.7,9,14.9C40.9,35.6,33.3,43.2,24,43.2z"/><text x="0" y="63" fill="#000000" font-size="5px" font-weight="bold" font-family="'Helvetica Neue', Helvetica, Arial-Unicode, Arial, Sans-serif">Created by Vectors Market</text><text x="0" y="68" fill="#000000" font-size="5px" font-weight="bold" font-family="'Helvetica Neue', Helvetica, Arial-Unicode, Arial, Sans-serif">from the Noun Project</text></svg>