<svg xmlns="http://www.w3.org/2000/svg" xmlns:xlink="http://www.w3.org/1999/xlink" version="1.1" x="0px" y="0px" viewBox="0 0 100 125" enable-background="new 0 0 100 100" xml:space="preserve"><path fill="#000000" d="M50.653,0C23.399,0,1.304,22.095,1.304,49.347c0,27.251,22.095,49.347,49.35,49.347  C77.907,98.693,100,76.598,100,49.347C100,22.095,77.907,0,50.653,0z M46.398,20.236c0-2.354,1.904-4.258,4.255-4.258  c2.348,0,4.255,1.904,4.255,4.258V54.27c0,2.351-1.907,4.255-4.255,4.255c-2.351,0-4.255-1.904-4.255-4.255V20.236z M50.653,77.88  c-15.25-0.005-27.611-12.363-27.617-27.617c0.005-12.571,8.408-23.175,19.899-26.513v9.06c-6.693,2.968-11.368,9.653-11.384,17.454  c0.021,10.548,8.558,19.083,19.101,19.101c10.549-0.019,19.08-8.553,19.101-19.101c-0.013-7.801-4.688-14.486-11.384-17.454v-9.06  c11.491,3.338,19.895,13.942,19.895,26.513C78.265,65.517,65.908,77.875,50.653,77.88z"/><text x="0" y="115" fill="#000000" font-size="5px" font-weight="bold" font-family="'Helvetica Neue', Helvetica, Arial-Unicode, Arial, Sans-serif">Created by iconoci</text><text x="0" y="120" fill="#000000" font-size="5px" font-weight="bold" font-family="'Helvetica Neue', Helvetica, Arial-Unicode, Arial, Sans-serif">from the Noun Project</text></svg>