<?xml version="1.0" encoding="UTF-8"?>
<!DOCTYPE svg PUBLIC "-//W3C//DTD SVG 1.1//EN" "http://www.w3.org/Graphics/SVG/1.1/DTD/svg11.dtd">
<!-- Creator: CorelDRAW X7 -->
<svg xmlns="http://www.w3.org/2000/svg" xml:space="preserve" width="207.462mm" height="207.457mm" version="1.1" style="shape-rendering:geometricPrecision; text-rendering:geometricPrecision; image-rendering:optimizeQuality; fill-rule:evenodd; clip-rule:evenodd"
viewBox="0 0 21024 21023"
 xmlns:xlink="http://www.w3.org/1999/xlink">
 <defs>
  <style type="text/css">
   <![CDATA[
    .str0 {stroke:#2B2A29;stroke-width:20.2675}
    .fil1 {fill:#7688A1}
    .fil0 {fill:black}
    .fil2 {fill:#73D118}
   ]]>
  </style>
 </defs>
 <g id="Capa_x0020_1">
  <metadata id="CorelCorpID_0Corel-Layer"/>
  <path class="fil0" d="M10512 10c-5800,0 -10502,4702 -10502,10502 0,5799 4702,10501 10502,10501 5800,0 10502,-4702 10502,-10501 0,-5800 -4702,-10502 -10502,-10502zm-905 4307c0,-501 405,-907 905,-907 500,0 906,406 906,907l0 7242c0,501 -406,906 -906,906 -500,0 -905,-405 -905,-906l0 -7242zm905 12267c-3245,-1 -5876,-2631 -5877,-5877 1,-2676 1789,-4932 4235,-5643l0 1928c-1425,632 -2420,2055 -2423,3715 4,2244 1821,4061 4065,4065 2245,-4 4060,-1821 4065,-4065 -3,-1660 -998,-3083 -2423,-3715l0 -1928c2445,711 4234,2967 4234,5643 0,3246 -2630,5876 -5876,5877z"/>
  <path class="fil1 str0" d="M10512 10c-5800,0 -10502,4702 -10502,10502 0,5799 4702,10501 10502,10501 5800,0 10502,-4702 10502,-10501 0,-5800 -4702,-10502 -10502,-10502zm0 16574c-3245,-1 -5876,-2631 -5877,-5877 1,-2676 1789,-4932 4235,-5643l0 1928c-1425,632 -2420,2055 -2423,3715 4,2244 1821,4061 4065,4065 2245,-4 4060,-1821 4065,-4065 -3,-1660 -998,-3083 -2423,-3715l0 -1928c2445,711 4234,2967 4234,5643 0,3246 -2630,5876 -5876,5877zm-905 -12267c0,-501 405,-907 905,-907 500,0 906,406 906,907l0 7242c0,501 -406,906 -906,906 -500,0 -905,-405 -905,-906l0 -7242z"/>
  <path class="fil2 str0" d="M16388 10707c0,3246 -2630,5876 -5876,5877 -3245,-1 -5876,-2631 -5877,-5877 1,-2676 1789,-4932 4235,-5643l0 1928c-1425,632 -2420,2055 -2423,3715 4,2244 1821,4061 4065,4065 2245,-4 4060,-1821 4065,-4065 -3,-1660 -998,-3083 -2423,-3715l0 -1928c2445,711 4234,2967 4234,5643zm-4970 -6390l0 7242c0,501 -406,906 -906,906 -500,0 -905,-405 -905,-906l0 -7242c0,-501 405,-907 905,-907 500,0 906,406 906,907zm-906 -4307c-5800,0 -10502,4702 -10502,10502 0,5799 4702,10501 10502,10501 5800,0 10502,-4702 10502,-10501 0,-5800 -4702,-10502 -10502,-10502z"/>
 </g>
</svg>
